<?xml version="1.0" standalone="no"?>
<!DOCTYPE svg PUBLIC "-//W3C//DTD SVG 20010904//EN"
 "http://www.w3.org/TR/2001/REC-SVG-20010904/DTD/svg10.dtd">
<svg version="1.0" xmlns="http://www.w3.org/2000/svg"
 width="503.000000pt" height="512.000000pt" viewBox="0 0 503.000000 512.000000"
 preserveAspectRatio="xMidYMid meet">

<g transform="translate(0.000000,512.000000) scale(0.100000,-0.100000)"
fill="#000000" stroke="none">
<path d="M2185 4630 l-350 -360 -310 -1 c-170 -1 -393 -4 -495 -8 l-185 -6 4
-507 3 -507 -239 -248 c-132 -137 -296 -306 -365 -378 l-125 -130 357 -364
357 -364 6 -285 c4 -157 7 -378 7 -492 l0 -207 203 -6 c111 -4 335 -7 497 -8
l295 0 355 -349 355 -350 37 38 c20 20 174 179 342 352 l305 315 498 0 498 0
5 517 5 516 363 371 363 370 -372 378 -372 378 4 480 4 480 -482 5 -482 5
-208 205 c-114 112 -280 275 -368 362 l-160 157 -350 -359z m710 -105 l350
-344 458 0 457 -1 0 -465 0 -465 348 -351 c191 -193 348 -354 349 -357 1 -4
-155 -167 -347 -362 l-349 -355 -1 -493 0 -493 -476 2 -477 2 -111 -114 c-62
-63 -209 -214 -327 -336 l-215 -222 -341 334 -341 335 -474 2 c-369 2 -473 6
-474 16 -1 6 -2 218 -3 470 l-2 457 -343 350 -343 350 90 95 c49 52 204 213
343 356 l254 261 0 490 0 490 128 6 c70 4 282 7 472 7 l345 0 330 339 c182
187 335 340 340 340 6 1 168 -154 360 -344z"/>
<path d="M2232 4405 l-320 -305 -449 -2 -448 -3 -3 -483 -2 -484 -272 -291
c-149 -161 -289 -310 -310 -332 l-38 -41 308 -315 309 -315 6 -139 c4 -76 7
-277 7 -447 l0 -308 443 0 442 0 327 -320 326 -320 313 320 313 320 436 0 437
0 6 323 c4 177 7 381 7 454 l0 132 325 336 326 336 -108 114 c-59 62 -206 214
-325 338 l-218 224 0 129 c0 71 -3 274 -7 452 l-6 322 -431 0 -431 0 -155 146
c-85 81 -230 218 -321 305 l-167 159 -320 -305z m411 -589 c26 -20 21 -26 -23
-26 -42 0 -52 12 -22 29 22 13 23 13 45 -3z m-73 -59 c0 -19 -20 -36 -36 -30
-8 3 -14 14 -14 24 0 14 7 19 25 19 14 0 25 -6 25 -13z m70 -2 c0 -9 -9 -15
-25 -15 -16 0 -25 6 -25 15 0 9 9 15 25 15 16 0 25 -6 25 -15z m78 -2 c-5 -26
-35 -28 -48 -4 -10 19 -8 21 20 21 25 0 31 -4 28 -17z m-188 -66 c0 -13 -5
-17 -16 -13 -9 3 -20 6 -25 6 -10 0 -12 33 -3 43 11 10 44 -17 44 -36z m70 3
c0 -23 -5 -30 -19 -30 -11 0 -23 5 -26 10 -11 18 6 50 26 50 14 0 19 -7 19
-30z m78 3 c3 -19 -1 -23 -22 -23 -21 0 -26 5 -26 26 0 21 4 25 23 22 14 -2
23 -11 25 -25z m72 8 c0 -11 -9 -21 -22 -24 -28 -8 -32 -4 -23 22 8 27 45 28
45 2z m-416 -83 c-18 -29 -40 -60 -47 -68 -8 -8 -31 -40 -51 -70 l-38 -55 41
-36 c22 -20 38 -38 36 -41 -3 -3 -23 0 -45 5 -51 14 -67 52 -49 121 20 82 69
141 149 183 40 21 41 16 4 -39z m517 41 c77 -26 129 -113 129 -213 0 -68 -8
-81 -51 -93 -28 -7 -41 -7 -46 0 -4 6 -1 13 6 15 7 2 24 14 38 27 25 21 26 24
13 54 -7 17 -25 40 -40 51 -16 11 -42 44 -58 73 -16 29 -37 59 -46 66 -36 30
-7 40 55 20z m-321 -16 c0 -5 -8 -30 -16 -58 -11 -33 -17 -88 -18 -163 -1
-108 -1 -113 -21 -108 -11 3 -44 6 -74 6 l-54 0 5 73 c8 125 85 257 150 257
15 0 28 -3 28 -7z m182 -36 c16 -24 31 -58 34 -75 6 -31 6 -32 -31 -32 -36 0
-37 -1 -31 -27 3 -16 11 -53 17 -83 6 -30 18 -60 27 -67 15 -11 11 -12 -25
-13 -51 0 -49 -3 -58 155 -3 66 -9 135 -12 153 -5 30 -3 32 23 32 23 0 35 -9
56 -43z m-419 -136 c9 -35 -40 -80 -57 -53 -6 9 32 72 44 72 4 0 10 -9 13 -19z
m602 -16 c30 -29 31 -41 7 -54 -16 -8 -22 -4 -35 25 -29 59 -15 73 28 29z
m-131 -40 c10 -19 14 -40 11 -45 -12 -19 -35 -10 -41 18 -3 15 -8 33 -10 40
-5 17 5 34 15 27 5 -2 16 -21 25 -40z m-175 21 c18 -22 10 -80 -11 -84 -15 -3
-18 4 -18 47 0 52 8 62 29 37z m-352 -102 c-3 -3 -12 -4 -19 -1 -8 3 -5 6 6 6
11 1 17 -2 13 -5z m43 -19 c7 -8 10 -25 6 -39 -5 -19 -10 -22 -33 -18 -20 4
-23 7 -10 10 9 2 14 8 10 14 -4 7 0 9 9 5 20 -7 18 21 -3 34 -8 5 -9 9 -3 9 6
0 17 -7 24 -15z m-570 -21 c7 -19 7 -31 -1 -40 -17 -20 -29 -7 -29 32 0 40 16
45 30 8z m1262 -10 c-9 -16 -10 -14 -9 8 1 15 6 23 11 18 4 -4 4 -16 -2 -26z
m-1161 6 c-24 -20 -51 -27 -51 -12 0 16 25 32 50 32 l25 -1 -24 -19z m1054 10
c-3 -5 -1 -10 4 -10 15 0 14 -25 -2 -38 -10 -8 -12 -5 -11 16 1 35 3 42 10 42
3 0 2 -4 -1 -10z m-488 -40 c-2 -26 -4 -28 -17 -14 -13 12 -13 16 -1 23 8 5
10 14 6 21 -5 8 -4 11 3 6 6 -4 10 -20 9 -36z m388 31 c-3 -5 -1 -12 5 -16 15
-10 12 -32 -6 -39 -15 -6 -15 -4 -3 11 8 9 9 14 2 10 -17 -11 -27 11 -13 28
14 17 24 20 15 6z m-1110 -69 c-5 -14 -7 -14 -21 0 -10 10 -13 24 -8 43 l7 28
14 -27 c8 -15 12 -35 8 -44z m821 42 c-1 -8 -7 -19 -14 -26 -9 -9 -11 -4 -9
19 1 18 7 29 14 26 6 -2 10 -11 9 -19z m197 14 c-4 -7 -6 -21 -5 -30 4 -22
-14 -24 -22 -3 -3 8 2 21 10 30 19 18 28 20 17 3z m-103 -33 c0 -14 -4 -25
-10 -25 -5 0 -10 11 -10 25 0 14 5 25 10 25 6 0 10 -11 10 -25z m-749 -15
c-25 -22 -46 -25 -56 -10 -11 18 6 30 43 30 l37 -1 -24 -19z m1207 -57 c27
-43 49 -79 47 -81 -1 -1 -26 13 -55 33 -71 48 -84 47 -76 -7 4 -23 5 -40 2
-38 -6 7 -57 143 -54 145 6 5 64 23 75 24 6 1 33 -34 61 -76z m266 61 c11 -28
7 -34 -23 -34 -23 0 -30 5 -33 25 -5 22 -2 25 22 25 16 0 30 -7 34 -16z
m-1694 -46 c0 -10 -7 -18 -15 -18 -11 0 -15 11 -15 38 1 35 2 36 15 18 8 -11
15 -28 15 -38z m172 7 c2 -12 -49 -31 -58 -22 -4 3 -4 13 0 22 6 18 55 18 58
0z m-240 -12 c21 -19 24 -43 5 -43 -19 0 -37 21 -37 42 0 22 8 23 32 1z m964
-100 c-4 -65 -9 -139 -13 -165 -5 -44 -8 -48 -34 -48 -33 0 -47 16 -21 24 23
8 42 47 42 86 0 41 -17 80 -49 115 -24 25 -28 36 -24 68 l5 37 51 0 50 0 -7
-117z m248 60 c10 -32 20 -66 22 -76 5 -14 -1 -13 -32 8 -20 14 -46 25 -56 25
-19 0 -19 -5 -13 -87 10 -128 7 -123 68 -116 29 3 58 10 65 16 9 7 12 4 12
-11 0 -22 -33 -32 -111 -32 l-49 0 0 159 c0 172 -2 167 56 170 16 1 24 -10 38
-56z m752 43 c19 -19 18 -30 -6 -51 -19 -17 -20 -17 -31 8 -9 20 -9 29 2 41
17 19 17 19 35 2z m-1776 -35 c0 -13 -57 -34 -70 -26 -18 11 9 35 41 35 16 0
29 -4 29 -9z m-232 -17 c22 -15 31 -64 12 -64 -17 0 -50 39 -50 60 0 24 8 25
38 4z m1872 -64 c-38 -25 -78 9 -43 36 15 11 21 10 38 -7 17 -17 18 -21 5 -29z
m-1680 31 c0 -11 -25 -21 -56 -21 -17 0 -22 4 -18 15 7 16 74 22 74 6z m1352
-28 c34 -32 38 -78 8 -86 -17 -4 -22 3 -35 46 -23 78 -19 84 27 40z m-1564
-46 c2 -15 -2 -27 -8 -27 -19 0 -60 48 -60 70 0 22 0 22 33 3 21 -13 33 -28
35 -46z m167 34 c19 -8 19 -8 -2 -19 -25 -14 -63 -16 -63 -4 0 12 22 32 35 31
5 0 19 -4 30 -8z m1275 -51 c14 -34 4 -50 -30 -50 -14 0 -40 66 -40 100 0 21
58 -20 70 -50z m730 35 c0 -30 -38 -55 -51 -34 -5 8 -9 22 -9 31 0 14 8 19 53
27 4 0 7 -10 7 -24z m-1210 -55 c0 -39 -9 -60 -26 -60 -22 0 -27 23 -14 70 9
34 14 39 26 30 8 -7 14 -25 14 -40z m155 20 c27 -52 17 -98 -19 -84 -12 5 -16
20 -16 60 0 60 12 69 35 24z m157 -1 c10 -13 19 -35 20 -49 3 -20 -2 -26 -23
-28 -23 -3 -27 1 -32 35 -14 79 -2 93 35 42z m-1308 -35 c14 -37 -24 -47 -48
-12 -9 12 -16 31 -16 40 0 17 2 17 29 4 16 -9 31 -23 35 -32z m178 31 c2 -12
-49 -31 -58 -22 -4 3 -4 13 0 22 6 18 55 18 58 0z m1412 -35 c29 -1 30 -1 12
-15 -30 -22 -43 -18 -55 16 -14 40 -13 51 1 22 8 -17 20 -23 42 -23z m460 4
c8 -21 -1 -34 -24 -34 -22 0 -34 15 -26 35 7 20 42 19 50 -1z m-1906 -13 c20
-12 -11 -33 -44 -29 -27 3 -27 4 -10 21 19 19 34 21 54 8z m1580 -14 c56 -59
46 -134 -27 -207 -45 -45 -52 -48 -140 -64 -88 -16 -130 -17 -79 -1 41 13 106
64 128 100 22 36 24 85 6 128 -6 12 -4 17 7 17 21 0 41 -63 33 -103 -8 -43
-29 -72 -80 -108 -39 -29 -40 -30 -11 -23 136 32 210 159 140 242 -22 26 -24
42 -5 42 4 0 16 -11 28 -23z m-1110 -6 c-38 -82 -41 -100 -23 -147 16 -42 36
-62 111 -111 13 -8 3 -7 -31 2 -79 22 -138 112 -120 183 15 59 34 92 50 86 9
-4 15 -9 13 -13z m-640 -49 c-8 -41 -78 -7 -78 38 0 20 0 20 41 0 27 -14 39
-27 37 -38z m2336 5 c7 -5 5 -12 -8 -22 -26 -20 -33 -19 -42 7 -4 15 -1 26 12
35 15 11 20 11 23 1 2 -7 9 -16 15 -21z m-2174 4 c0 -14 -41 -41 -62 -41 -23
0 -23 26 0 39 22 13 62 14 62 2z m558 -29 c-6 -16 -8 -40 -4 -55 16 -65 134
-152 221 -163 l50 -7 -65 50 c-65 50 -110 112 -110 152 0 12 6 21 15 21 8 0
15 -8 15 -18 0 -41 64 -120 155 -190 l30 -23 -93 5 c-62 3 -98 10 -105 18 -7
8 -34 31 -61 53 -76 60 -102 117 -76 166 6 10 17 19 24 19 11 0 12 -6 4 -28z
m832 -6 c0 -24 -78 -132 -131 -180 l-51 -46 -71 1 c-41 1 -62 4 -49 7 21 7
162 182 162 202 0 6 5 10 10 10 20 0 9 -32 -29 -88 -22 -31 -53 -72 -70 -89
-29 -32 -29 -33 -7 -33 46 0 215 182 202 217 -3 8 2 13 14 13 11 0 20 -6 20
-14z m588 -24 c3 -18 -2 -22 -22 -22 -20 0 -26 5 -26 21 0 11 5 17 10 14 6 -3
10 -1 10 5 0 21 25 4 28 -18z m-2187 2 c32 -16 36 -46 7 -52 -20 -4 -58 31
-58 53 0 19 13 19 51 -1z m179 -14 c-21 -39 -80 -54 -80 -20 0 23 25 39 63 40
25 0 26 -2 17 -20z m841 -19 c11 -51 109 -185 124 -169 3 3 -2 24 -10 48 -8
24 -18 68 -22 98 -5 44 -3 54 8 50 9 -3 16 -28 21 -72 6 -62 32 -126 45 -112
3 3 8 42 12 87 4 54 10 84 19 87 10 3 12 -15 7 -90 l-6 -93 25 30 c14 16 36
59 50 95 14 38 30 66 40 68 9 2 16 -1 16 -7 0 -24 -43 -122 -70 -160 l-30 -41
-80 0 c-44 0 -79 3 -77 8 1 4 -14 28 -34 52 -46 57 -69 102 -69 135 0 37 23
27 31 -14z m-1022 -47 c16 -15 8 -44 -13 -44 -17 0 -56 46 -56 66 0 11 5 11
28 2 15 -6 33 -17 41 -24z m149 -6 c-20 -30 -68 -37 -68 -10 0 26 8 32 48 32
33 0 34 -1 20 -22z m2272 12 c0 -5 3 -15 6 -23 4 -11 -4 -17 -26 -22 -38 -8
-44 -3 -36 28 4 18 13 25 31 25 14 0 25 -4 25 -8z m-196 -63 c13 -20 3 -31
-22 -23 -14 5 -18 13 -15 27 6 22 21 21 37 -4z m-2083 -5 c-15 -29 -39 -45
-57 -38 -21 8 -13 28 17 43 36 19 52 17 40 -5z m-160 -2 c22 -12 25 -35 7 -43
-20 -7 -56 10 -68 32 -9 19 -8 21 15 21 15 0 35 -5 46 -10z m143 -81 c-20 -22
-54 -26 -54 -5 0 17 19 33 45 38 27 5 31 -9 9 -33z m-146 2 c16 -10 13 -42 -5
-48 -6 -2 -26 9 -45 26 l-33 30 35 1 c19 0 41 -4 48 -9z m1216 -133 c-4 -62
-8 -115 -10 -117 -2 -2 -4 48 -4 112 0 73 4 117 10 117 7 0 8 -39 4 -112z m45
50 c-1 -35 -4 -88 -9 -118 -6 -46 -7 -36 -9 63 0 72 3 117 9 117 6 0 10 -27 9
-62z m40 -35 c0 -54 -4 -107 -9 -118 -5 -13 -9 23 -9 98 -1 72 3 117 9 117 6
0 10 -39 9 -97z m-1140 70 c-22 -30 -40 -42 -55 -36 -35 13 -2 52 45 53 21 0
22 -2 10 -17z m2304 -5 c7 -25 -7 -38 -40 -38 -17 0 -23 6 -23 23 0 29 7 37
36 37 14 0 24 -8 27 -22z m-193 -23 c0 -21 -5 -25 -31 -25 -24 0 -30 3 -25 16
3 9 6 20 6 25 0 5 11 9 25 9 20 0 25 -5 25 -25z m-2243 -12 c2 -6 -5 -17 -17
-23 -17 -9 -26 -8 -46 5 -13 8 -24 20 -24 26 0 14 82 7 87 -8z m163 -10 c0
-14 -34 -43 -52 -43 -20 0 -24 20 -6 38 13 13 58 17 58 5z m-142 -55 c36 -36
-21 -54 -68 -21 l-24 17 24 7 c39 11 55 10 68 -3z m150 -28 c-13 -39 -45 -58
-55 -34 -4 12 3 25 21 41 37 31 47 29 34 -7z m2026 4 c24 -9 20 -44 -4 -44
-15 0 -20 7 -20 25 0 27 1 28 24 19z m-1984 -33 c0 -42 -38 -90 -61 -75 -16 9
-10 27 18 56 27 28 43 35 43 19z m2210 -11 c12 -6 16 -17 13 -30 -6 -22 -24
-25 -54 -9 -20 10 -20 11 -3 30 20 22 20 22 44 9z m-2370 -35 c0 -18 -42 -20
-71 -5 -27 15 -24 28 9 32 34 5 62 -8 62 -27z m190 -20 c0 -28 -24 -65 -42
-65 -25 0 -23 28 4 57 25 26 38 29 38 8z m1910 -42 c0 -16 -6 -23 -19 -23 -25
0 -41 22 -35 47 5 18 9 19 30 9 15 -7 24 -20 24 -33z m-1228 26 c74 -16 143
-49 214 -101 l61 -46 -5 -213 c-2 -118 -6 -216 -8 -218 -3 -3 -21 5 -42 18
-149 90 -327 156 -454 168 -38 3 -68 9 -68 14 0 20 163 366 177 377 21 15 56
15 125 1z m725 -1 c4 -7 44 -94 89 -193 88 -195 88 -193 18 -194 -39 -1 -201
-42 -274 -70 -30 -11 -93 -43 -140 -69 l-85 -49 -6 66 c-4 36 -7 134 -8 218
l-1 152 53 40 c64 47 105 69 177 92 65 21 165 25 177 7z m-1569 -20 c4 -22
-30 -31 -63 -16 -25 11 -26 13 -8 25 24 18 67 13 71 -9z m187 -64 c-9 -14 -22
-23 -28 -21 -21 7 -19 35 5 67 l23 31 8 -26 c7 -19 4 -33 -8 -51z m975 56 c0
-17 -12 -40 -21 -40 -15 0 -28 44 -16 52 12 7 37 -1 37 -12z m-1125 -55 c0
-25 -42 -32 -70 -11 -20 14 -20 15 5 25 37 15 65 9 65 -14z m215 -15 c0 -27
-22 -60 -40 -60 -20 0 -19 35 2 66 26 37 38 35 38 -6z m1998 -29 c-7 -9 -13
-18 -15 -20 -1 -2 -15 4 -30 14 l-27 18 24 19 c21 17 24 17 41 2 15 -14 17
-20 7 -33z m-1950 -40 c-4 -41 -22 -51 -38 -21 -8 16 -8 30 1 57 11 35 12 35
26 17 8 -10 13 -34 11 -53z m1662 31 c0 -9 -5 -24 -10 -32 -8 -13 -12 -12 -31
6 -17 18 -19 25 -10 43 10 17 15 19 31 11 11 -6 20 -18 20 -28z m-1865 -7 c0
-24 -34 -32 -66 -14 l-22 12 24 13 c33 19 64 14 64 -11z m261 -19 c14 -57 -15
-100 -36 -54 -8 16 -8 32 -1 51 13 33 29 35 37 3z m-199 -32 c11 -28 -43 -45
-77 -24 -13 8 -12 11 5 24 26 20 64 20 72 0z m263 -3 c11 -22 13 -64 3 -74
-14 -14 -33 17 -33 54 0 42 13 51 30 20z m-213 -37 c8 -21 -21 -44 -54 -44
-31 0 -29 14 5 39 33 25 41 26 49 5z m1934 6 c16 -9 17 -14 6 -30 -14 -24 -40
-26 -57 -5 -10 12 -10 18 0 30 15 18 25 19 51 5z m-1866 -50 c12 -19 -16 -40
-51 -40 -41 0 -43 10 -6 32 31 20 48 22 57 8z m85 -40 c0 -25 -41 -43 -71 -32
-21 8 -20 9 12 30 43 27 59 28 59 2z m286 -121 c130 -23 259 -77 384 -161 63
-43 78 -64 66 -94 -5 -12 -18 -7 -63 24 -145 98 -298 163 -416 177 -50 6 -60
11 -68 32 -5 13 -9 26 -9 29 0 7 44 4 106 -7z m1073 -18 c-9 -26 -16 -29 -69
-35 -111 -13 -250 -70 -393 -162 -75 -49 -82 -51 -91 -28 -8 22 6 38 74 84
141 96 323 164 452 169 37 1 37 1 27 -28z m-1401 -357 c97 -6 102 -7 108 -30
l6 -24 674 0 674 0 0 24 c0 22 5 25 53 30 91 9 680 15 671 6 -5 -4 -62 -36
-126 -71 -65 -34 -118 -65 -118 -69 0 -3 57 -28 128 -54 134 -51 162 -66 122
-66 -40 0 -303 -21 -327 -26 -17 -3 -23 -12 -23 -29 l0 -25 -1055 0 -1055 0 0
24 c0 28 -5 29 -195 46 -212 19 -209 15 -50 71 77 27 144 50 150 52 5 2 -52
36 -128 76 -75 40 -137 74 -137 76 0 5 498 -4 628 -11z"/>
<path d="M2387 3493 c-3 -5 -8 -36 -12 -70 l-7 -62 35 -6 c20 -4 40 -4 46 0
30 18 -5 145 -40 145 -10 0 -20 -3 -22 -7z m51 -92 c-2 -15 -10 -27 -20 -29
-15 -3 -18 4 -18 44 0 47 0 47 20 29 13 -12 20 -29 18 -44z"/>
<path d="M2480 2206 c0 -2 8 -10 18 -17 15 -13 16 -12 3 4 -13 16 -21 21 -21
13z"/>
<path d="M2060 1990 c0 -5 5 -10 11 -10 5 0 7 5 4 10 -3 6 -8 10 -11 10 -2 0
-4 -4 -4 -10z"/>
<path d="M2435 1890 c-3 -5 -1 -10 4 -10 6 0 11 5 11 10 0 6 -2 10 -4 10 -3 0
-8 -4 -11 -10z"/>
<path d="M1260 1490 c8 -6 60 -35 115 -65 63 -34 94 -56 85 -59 -8 -3 -64 -23
-124 -44 l-109 -39 79 -7 c44 -3 105 -9 137 -13 l57 -6 0 102 0 101 175 0
c149 0 175 2 175 15 0 13 -23 15 -142 15 -79 0 -215 2 -303 5 -118 4 -156 3
-145 -5z"/>
<path d="M3438 1493 c-149 -3 -178 -6 -178 -18 0 -13 27 -15 175 -15 l175 0 0
-100 0 -100 88 6 c48 4 107 10 132 13 l45 6 -90 33 c-49 18 -103 39 -120 46
l-30 12 115 62 115 62 -125 -2 c-69 -2 -205 -4 -302 -5z"/>
<path d="M1678 1433 l-158 -4 0 -109 0 -110 1030 0 1030 0 0 38 c0 22 3 73 6
115 l7 77 -879 -2 c-483 -1 -950 -4 -1036 -5z m-18 -93 c0 -56 3 -70 15 -70
12 0 15 14 15 70 0 42 4 70 10 70 7 0 10 -30 8 -82 -3 -82 -3 -83 -30 -86 -35
-4 -48 25 -48 109 0 46 3 59 15 59 12 0 15 -14 15 -70z m112 23 l16 -48 1 48
c1 26 6 47 11 47 6 0 10 -35 10 -86 0 -97 -13 -108 -39 -33 l-16 44 -3 -47
c-5 -81 -22 -53 -22 37 0 99 17 114 42 38z m78 -38 c0 -50 -4 -85 -10 -85 -6
0 -10 35 -10 85 0 50 4 85 10 85 6 0 10 -35 10 -85z m46 24 l11 -54 7 46 c8
50 21 77 31 67 11 -11 -27 -168 -40 -168 -7 0 -17 26 -24 63 -7 34 -15 73 -18
86 -4 17 -2 22 8 19 8 -3 19 -29 25 -59z m134 46 c0 -9 -9 -15 -25 -15 -18 0
-25 -5 -25 -20 0 -15 7 -20 25 -20 16 0 25 -6 25 -15 0 -9 -9 -15 -25 -15 -18
0 -25 -5 -25 -20 0 -16 7 -20 30 -20 20 0 30 -5 30 -15 0 -11 -11 -15 -40 -15
l-40 0 0 85 0 85 35 0 c24 0 35 -5 35 -15z m98 -24 c2 -18 -1 -38 -6 -43 -7
-7 -5 -22 4 -44 17 -41 17 -44 1 -44 -7 0 -19 16 -26 35 -7 19 -17 35 -22 35
-5 0 -9 -16 -9 -35 0 -19 -4 -35 -10 -35 -6 0 -10 35 -10 86 l0 85 38 -3 c34
-3 37 -6 40 -37z m90 12 c2 -13 -1 -23 -7 -23 -6 0 -11 5 -11 10 0 6 -7 10
-15 10 -24 0 -17 -26 10 -38 51 -23 40 -106 -13 -100 -21 2 -28 9 -30 31 -2
15 1 27 7 27 6 0 11 -7 11 -15 0 -8 7 -15 15 -15 23 0 18 34 -7 45 -25 11 -33
34 -24 71 5 20 12 25 34 22 19 -2 28 -9 30 -25z m42 -58 c0 -50 -4 -85 -10
-85 -6 0 -10 35 -10 85 0 50 4 85 10 85 6 0 10 -35 10 -85z m90 70 c0 -8 -7
-15 -15 -15 -12 0 -15 -14 -15 -70 0 -40 -4 -70 -10 -70 -6 0 -10 30 -10 70 0
56 -3 70 -15 70 -8 0 -15 7 -15 15 0 11 11 15 40 15 29 0 40 -4 40 -15z m66
-37 c22 -87 25 -118 14 -118 -7 0 -14 9 -17 20 -3 11 -14 20 -24 20 -12 0 -19
-7 -19 -20 0 -11 -7 -20 -16 -20 -10 0 -14 6 -10 18 5 18 20 77 30 125 9 40
28 29 42 -25z m102 25 c2 -13 -1 -23 -7 -23 -6 0 -11 5 -11 10 0 6 -7 10 -15
10 -23 0 -18 -18 10 -36 30 -20 41 -54 25 -83 -13 -25 -55 -28 -64 -5 -9 24
-7 44 4 44 6 0 10 -7 10 -15 0 -8 7 -15 15 -15 24 0 17 36 -10 48 -25 12 -32
41 -19 77 10 25 58 16 62 -12z m132 12 c0 -8 -7 -15 -15 -15 -12 0 -15 -14
-15 -70 0 -40 -4 -70 -10 -70 -6 0 -10 30 -10 70 0 56 -3 70 -15 70 -8 0 -15
7 -15 15 0 11 11 15 40 15 29 0 40 -4 40 -15z m90 0 c0 -9 -9 -15 -25 -15 -18
0 -25 -5 -25 -20 0 -13 7 -20 20 -20 11 0 20 -7 20 -15 0 -9 -9 -15 -24 -15
-19 0 -23 -4 -19 -20 3 -13 14 -20 29 -20 15 0 24 -6 24 -15 0 -11 -11 -15
-40 -15 l-40 0 0 85 0 85 40 0 c29 0 40 -4 40 -15z m40 -55 c0 -56 3 -70 15
-70 12 0 15 14 15 70 0 42 4 70 10 70 7 0 10 -30 8 -82 -3 -82 -3 -83 -30 -86
-35 -4 -48 25 -48 109 0 46 3 59 15 59 12 0 15 -14 15 -70z m92 38 l3 -33 18
33 c10 17 24 32 32 32 12 0 12 -5 -2 -35 -17 -36 -17 -38 14 -122 3 -7 -2 -13
-11 -13 -9 0 -16 4 -16 9 0 5 -5 22 -11 38 -8 22 -12 24 -19 13 -6 -8 -10 -25
-10 -37 0 -13 -4 -23 -10 -23 -6 0 -10 35 -10 85 0 82 15 119 22 53z m100 -35
c2 -53 6 -68 18 -68 12 0 16 15 18 68 4 88 22 87 22 -2 0 -84 -6 -101 -34
-101 -37 0 -46 19 -46 97 0 92 18 96 22 6z m138 3 c0 -57 11 -88 26 -73 3 3 6
33 7 68 1 39 7 64 15 67 15 5 17 -120 2 -149 -13 -23 -55 -25 -64 -3 -10 26
-7 154 4 154 6 0 10 -28 10 -64z m116 12 c4 -29 9 -46 10 -38 2 8 5 32 9 53 4
23 11 37 20 37 12 0 15 -17 15 -85 0 -50 -4 -85 -10 -85 -5 0 -11 17 -12 38
l-1 37 -4 -37 c-5 -45 -32 -53 -34 -10 l-2 27 -4 -27 c-9 -59 -23 -24 -23 57
0 66 3 85 14 85 9 0 17 -18 22 -52z m128 35 c5 -19 20 -79 30 -125 5 -21 3
-28 -9 -28 -8 0 -15 9 -15 20 0 13 -7 20 -20 20 -11 0 -20 -6 -20 -14 0 -15
-18 -31 -26 -23 -4 4 20 122 31 155 6 18 23 15 29 -5z m114 5 c15 -15 16 -60
2 -74 -7 -7 -6 -22 5 -47 21 -51 -4 -51 -30 1 l-20 37 -3 -37 c-6 -72 -22 -38
-22 47 l0 85 28 0 c15 0 33 -5 40 -12z"/>
<path d="M2070 1360 c0 -13 7 -20 20 -20 13 0 20 7 20 20 0 13 -7 20 -20 20
-13 0 -20 -7 -20 -20z"/>
<path d="M2387 1336 c-4 -10 -5 -21 -2 -24 9 -9 17 6 13 25 -3 17 -4 17 -11
-1z"/>
<path d="M3330 1333 c0 -13 5 -23 10 -23 13 0 13 11 0 30 -8 12 -10 11 -10 -7z"/>
<path d="M3420 1360 c0 -15 5 -20 18 -18 9 2 17 10 17 18 0 8 -8 16 -17 18
-13 2 -18 -3 -18 -18z"/>
</g>
</svg>
